<svg id="Capa_1" xmlns="http://www.w3.org/2000/svg" viewBox="0 0 147.4 147.4"><style>.st0{fill:#FFFFFF;} .st1{enable-background:new ;} .st2{fill:#003DA5;}</style><path class="st0" d="M0 0h147.4v147.4H0z"/><g class="st1"><path class="st2" d="M44.6 55.4c-2.4-1-5-1.6-7.7-1.6s-5.3.5-7.7 1.6c-2 .9-3.9 2-5.5 3.4l26.2-.2c-1.6-1.3-3.3-2.4-5.3-3.2zm.2 18.7c0 1-.2 1.9-.6 2.7-.2.5-.5 1-.8 1.4l12.8-.1c.3-1.3.5-2.6.5-3.9l-11.9-.1zM17.5 69c-.3 1.5-.5 3-.5 4.5l11.9-.1c0-1 .2-1.9.6-2.8.2-.5.5-1 .8-1.5L17.5 69zm2.2 14.7c.9 1.5 1.9 2.9 3.1 4.1l.3.3 27.7-.2.1-.1c1.2-1.2 2.2-2.4 3-3.9l-34.2-.2zm4 4.9c1.6 1.4 3.4 2.6 5.5 3.4 2.4 1 5 1.6 7.7 1.6s5.3-.5 7.7-1.6c2-.8 3.7-1.9 5.3-3.3l-26.2-.1zM42.9 79c-.1.1-.2.2-.3.4-.8.6-1.7 1.2-2.6 1.6-1 .4-2 .6-3.1.6s-2.1-.2-3.1-.6-1.8-1-2.5-1.7l-.4-.4-13.2-.1c.2.9.5 1.8.9 2.6l.9 1.8 35-.2c.3-.5.5-1 .8-1.6.3-.8.6-1.6.8-2.4H42.9zm13.4-9.7l-12.8-.1c.3.4.6.9.8 1.4.4.9.6 1.8.6 2.7l11.9-.1c-.1-1.3-.2-2.6-.5-3.9zm-11.5 4.8c0 1-.2 1.9-.6 2.7-.2.5-.5 1-.8 1.4l12.8-.1c.3-1.3.5-2.6.5-3.9l-11.9-.1zm0 0c0 1-.2 1.9-.6 2.7-.2.5-.5 1-.8 1.4l12.8-.1c.3-1.3.5-2.6.5-3.9l-11.9-.1zm0 0c0 1-.2 1.9-.6 2.7-.2.5-.5 1-.8 1.4l12.8-.1c.3-1.3.5-2.6.5-3.9l-11.9-.1zm0 0c0 1-.2 1.9-.6 2.7-.2.5-.5 1-.8 1.4l12.8-.1c.3-1.3.5-2.6.5-3.9l-11.9-.1zm0 0c0 1-.2 1.9-.6 2.7-.2.5-.5 1-.8 1.4l12.8-.1c.3-1.3.5-2.6.5-3.9l-11.9-.1zm0 0c0 1-.2 1.9-.6 2.7-.2.5-.5 1-.8 1.4l12.8-.1c.3-1.3.5-2.6.5-3.9l-11.9-.1zm0 0c0 1-.2 1.9-.6 2.7-.2.5-.5 1-.8 1.4l12.8-.1c.3-1.3.5-2.6.5-3.9l-11.9-.1zm0 0c0 1-.2 1.9-.6 2.7-.2.5-.5 1-.8 1.4l12.8-.1c.3-1.3.5-2.6.5-3.9l-11.9-.1zm0 0c0 1-.2 1.9-.6 2.7-.2.5-.5 1-.8 1.4l12.8-.1c.3-1.3.5-2.6.5-3.9l-11.9-.1zm0 0c0 1-.2 1.9-.6 2.7-.2.5-.5 1-.8 1.4l12.8-.1c.3-1.3.5-2.6.5-3.9l-11.9-.1zm0 0c0 1-.2 1.9-.6 2.7-.2.5-.5 1-.8 1.4l12.8-.1c.3-1.3.5-2.6.5-3.9l-11.9-.1zm0 0c0 1-.2 1.9-.6 2.7-.2.5-.5 1-.8 1.4l12.8-.1c.3-1.3.5-2.6.5-3.9l-11.9-.1zm0 0c0 1-.2 1.9-.6 2.7-.2.5-.5 1-.8 1.4l12.8-.1c.3-1.3.5-2.6.5-3.9l-11.9-.1zM28.9 74L17 73.9c0 1.5.2 3 .5 4.4l12.8-.1c-.3-.5-.6-.9-.8-1.5-.3-.8-.5-1.7-.6-2.7zm15.9.1c0 1-.2 1.9-.6 2.7-.2.5-.5 1-.8 1.4l12.8-.1c.3-1.3.5-2.6.5-3.9l-11.9-.1zm0 0c0 1-.2 1.9-.6 2.7-.2.5-.5 1-.8 1.4l12.8-.1c.3-1.3.5-2.6.5-3.9l-11.9-.1zm0 0c0 1-.2 1.9-.6 2.7-.2.5-.5 1-.8 1.4l12.8-.1c.3-1.3.5-2.6.5-3.9l-11.9-.1zm0 0c0 1-.2 1.9-.6 2.7-.2.5-.5 1-.8 1.4l12.8-.1c.3-1.3.5-2.6.5-3.9l-11.9-.1zm0 0c0 1-.2 1.9-.6 2.7-.2.5-.5 1-.8 1.4l12.8-.1c.3-1.3.5-2.6.5-3.9l-11.9-.1zm0 0c0 1-.2 1.9-.6 2.7-.2.5-.5 1-.8 1.4l12.8-.1c.3-1.3.5-2.6.5-3.9l-11.9-.1zm0 0c0 1-.2 1.9-.6 2.7-.2.5-.5 1-.8 1.4l12.8-.1c.3-1.3.5-2.6.5-3.9l-11.9-.1zm0 0c0 1-.2 1.9-.6 2.7-.2.5-.5 1-.8 1.4l12.8-.1c.3-1.3.5-2.6.5-3.9l-11.9-.1zm0 0c0 1-.2 1.9-.6 2.7-.2.5-.5 1-.8 1.4l12.8-.1c.3-1.3.5-2.6.5-3.9l-11.9-.1zm0 0c0 1-.2 1.9-.6 2.7-.2.5-.5 1-.8 1.4l12.8-.1c.3-1.3.5-2.6.5-3.9l-11.9-.1zm0 0c0 1-.2 1.9-.6 2.7-.2.5-.5 1-.8 1.4l12.8-.1c.3-1.3.5-2.6.5-3.9l-11.9-.1zm0 0c0 1-.2 1.9-.6 2.7-.2.5-.5 1-.8 1.4l12.8-.1c.3-1.3.5-2.6.5-3.9l-11.9-.1zm11.5-4.8l-12.8-.1c.3.4.6.9.8 1.4.4.9.6 1.8.6 2.7l11.9-.1c-.1-1.3-.2-2.6-.5-3.9zm0 0l-12.8-.1c.3.4.6.9.8 1.4.4.9.6 1.8.6 2.7l11.9-.1c-.1-1.3-.2-2.6-.5-3.9zm0 0l-12.8-.1c.3.4.6.9.8 1.4.4.9.6 1.8.6 2.7l11.9-.1c-.1-1.3-.2-2.6-.5-3.9zm0 0l-12.8-.1c.3.4.6.9.8 1.4.4.9.6 1.8.6 2.7l11.9-.1c-.1-1.3-.2-2.6-.5-3.9zm0 0l-12.8-.1c.3.4.6.9.8 1.4.4.9.6 1.8.6 2.7l11.9-.1c-.1-1.3-.2-2.6-.5-3.9zm0 0l-12.8-.1c.3.4.6.9.8 1.4.4.9.6 1.8.6 2.7l11.9-.1c-.1-1.3-.2-2.6-.5-3.9zm0 0l-12.8-.1c.3.4.6.9.8 1.4.4.9.6 1.8.6 2.7l11.9-.1c-.1-1.3-.2-2.6-.5-3.9zm0 0l-12.8-.1c.3.4.6.9.8 1.4.4.9.6 1.8.6 2.7l11.9-.1c-.1-1.3-.2-2.6-.5-3.9zm0 0l-12.8-.1c.3.4.6.9.8 1.4.4.9.6 1.8.6 2.7l11.9-.1c-.1-1.3-.2-2.6-.5-3.9zm0 0l-12.8-.1c.3.4.6.9.8 1.4.4.9.6 1.8.6 2.7l11.9-.1c-.1-1.3-.2-2.6-.5-3.9zm0 0l-12.8-.1c.3.4.6.9.8 1.4.4.9.6 1.8.6 2.7l11.9-.1c-.1-1.3-.2-2.6-.5-3.9zm0 0l-12.8-.1c.3.4.6.9.8 1.4.4.9.6 1.8.6 2.7l11.9-.1c-.1-1.3-.2-2.6-.5-3.9zm0 0l-12.8-.1c.3.4.6.9.8 1.4.4.9.6 1.8.6 2.7l11.9-.1c-.1-1.3-.2-2.6-.5-3.9zM55.2 66c-.2-.5-.5-1.1-.8-1.6l-35-.2-.9 1.8c-.4.9-.7 1.7-.9 2.6l13.2-.1c.1-.2.3-.3.4-.4.7-.7 1.6-1.3 2.5-1.7 1-.4 2-.6 3.1-.6s2.2.2 3.2.6 1.8 1 2.5 1.7c.1.1.2.2.3.4l13.2-.1c-.2-.8-.5-1.6-.8-2.4zm1.1 3.3l-12.8-.1c.3.4.6.9.8 1.4.4.9.6 1.8.6 2.7l11.9-.1c-.1-1.3-.2-2.6-.5-3.9zm0 0l-12.8-.1c.3.4.6.9.8 1.4.4.9.6 1.8.6 2.7l11.9-.1c-.1-1.3-.2-2.6-.5-3.9zm0 0l-12.8-.1c.3.4.6.9.8 1.4.4.9.6 1.8.6 2.7l11.9-.1c-.1-1.3-.2-2.6-.5-3.9zm0 0l-12.8-.1c.3.4.6.9.8 1.4.4.9.6 1.8.6 2.7l11.9-.1c-.1-1.3-.2-2.6-.5-3.9zm0 0l-12.8-.1c.3.4.6.9.8 1.4.4.9.6 1.8.6 2.7l11.9-.1c-.1-1.3-.2-2.6-.5-3.9zm0 0l-12.8-.1c.3.4.6.9.8 1.4.4.9.6 1.8.6 2.7l11.9-.1c-.1-1.3-.2-2.6-.5-3.9zm0 0l-12.8-.1c.3.4.6.9.8 1.4.4.9.6 1.8.6 2.7l11.9-.1c-.1-1.3-.2-2.6-.5-3.9zm0 0l-12.8-.1c.3.4.6.9.8 1.4.4.9.6 1.8.6 2.7l11.9-.1c-.1-1.3-.2-2.6-.5-3.9zm0 0l-12.8-.1c.3.4.6.9.8 1.4.4.9.6 1.8.6 2.7l11.9-.1c-.1-1.3-.2-2.6-.5-3.9zm0 0l-12.8-.1c.3.4.6.9.8 1.4.4.9.6 1.8.6 2.7l11.9-.1c-.1-1.3-.2-2.6-.5-3.9zm0 0l-12.8-.1c.3.4.6.9.8 1.4.4.9.6 1.8.6 2.7l11.9-.1c-.1-1.3-.2-2.6-.5-3.9zm0 0l-12.8-.1c.3.4.6.9.8 1.4.4.9.6 1.8.6 2.7l11.9-.1c-.1-1.3-.2-2.6-.5-3.9zm0 0l-12.8-.1c.3.4.6.9.8 1.4.4.9.6 1.8.6 2.7l11.9-.1c-.1-1.3-.2-2.6-.5-3.9zm-11.5 4.8c0 1-.2 1.9-.6 2.7-.2.5-.5 1-.8 1.4l12.8-.1c.3-1.3.5-2.6.5-3.9l-11.9-.1zm6.1-14.5l-27.8-.3-.3.3c-1.2 1.2-2.3 2.6-3.1 4.1l34.3-.2c-.9-1.4-1.9-2.7-3.1-3.9zm-6.1 14.5c0 1-.2 1.9-.6 2.7-.2.5-.5 1-.8 1.4l12.8-.1c.3-1.3.5-2.6.5-3.9l-11.9-.1zM76.7 71.1c-.7-.6-1.3-1.2-1.9-1.7l-16.2-.1c.5 1.1 1.1 2.1 1.9 3 .3.3.5.6.8.9l17.3-.1c-.6-.7-1.2-1.4-1.9-2zM58.8 59.6c-.1.1-.2.3-.2.5-.5 1-.8 2.2-.9 3.5l20.1-.1v-3.7l-19-.2zm16.5-5.4c-.7-.1-1.5-.2-2.4-.3s-1.8-.1-2.7-.1c-1.7 0-3.4.2-4.9.7s-2.9 1.2-4 2.1c-.7.6-1.3 1.2-1.9 2l18.4-.1v-3.9c-.8-.2-1.6-.3-2.5-.4zM57.6 64.4v.3c0 1.3.2 2.5.6 3.6l15.2-.1c-.4-.3-.7-.6-1-.9-.5-.5-.8-.8-.8-1.1 0-.3.1-.6.3-.8.2-.2.5-.3.8-.4s.6-.1 1-.1h.9c.4 0 .8 0 1.2.1.4 0 .7.1 1 .1.4 0 .7.1 1 .1v-.6l-20.2-.2zm.1 19.5v3.9l22.6-.1c.2-.5.5-.9.6-1.4.3-.7.5-1.4.6-2.2l-23.8-.2zm23.8-4.7L68 79.1c.3.4.4.7.4 1.1 0 1.3-.9 1.9-2.6 1.9-1 0-2-.1-2.9-.2-1-.1-1.8-.3-2.6-.5-.9-.2-1.8-.4-2.6-.6V83l24-.2v-1.2c.1-.8 0-1.6-.2-2.4zM65.7 77c.5.4.9.7 1.3 1.1l14.2-.1c-.1-.2-.2-.5-.2-.7-.4-1.1-.9-2.1-1.5-3l-17.2-.1c.3.2.5.5.8.7.9.8 1.7 1.4 2.6 2.1zm-8 11.8v3.4c.9.3 1.9.5 3 .7.9.2 2 .3 3.3.5 1.2.1 2.6.2 4 .2 2.4 0 4.4-.3 6.2-.9 1.7-.6 3.2-1.5 4.3-2.6.4-.4.7-.7 1-1.2l-21.8-.1zM91.8 54.7H78.9l1.2 3.7H93l-1.2-3.7zm24 5.2l-1.1 3.2 12.9-.1 1-3-12.8-.1zm-5.3 0l-11.7-.1-1.1 3.4 13.9-.1-1.1-3.2zm-26.7 9.6l1.2 3.6 39.5-.3 1-3.1-41.7-.2zm21.9 14.7l1.1 3.3 12.8-.1 1-3.1-14.9-.1zm1.6 4.9l1.2 3.5h9.4l1.1-3.4-11.7-.1zM87 79.2l1.2 3.5 16-.1.5-1.5.5 1.5 16-.1 1-3.1-35.2-.2zm3.2 9.8l1.2 3.6h9.4l1.2-3.5-11.8-.1zm-1.6-4.9l1.2 3.5 12.7-.1 1.1-3.4h-15zm-3.2-9.8l1.2 3.6 36.2-.2 1-3.1-38.4-.3zm28.8-9.5l-1.1 3.2-1.1-3.2-14.9-.1-1 3.3-1.1-3.3-12.9-.1 1.2 3.6 42.7-.3 1-3.1h-12.8zm-20.8-5l-12.9-.1 1.2 3.6 12.8-.1-1.1-3.4zm24.2-5.1l-1.2 3.5 12.9-.1 1.1-3.4h-12.8zm-8.8 0h-8.3l-1.2 3.6 10.7-.1-1.2-3.5z"/></g></svg>