<?xml version="1.0" encoding="utf-8"?>
<!-- Generator: Adobe Illustrator 21.1.0, SVG Export Plug-In . SVG Version: 6.00 Build 0)  -->
<svg version="1.1" id="Layer_1" xmlns="http://www.w3.org/2000/svg" xmlns:xlink="http://www.w3.org/1999/xlink" x="0px" y="0px"
	 viewBox="0 0 1034.4 264.2" style="enable-background:new 0 0 1034.4 264.2;" xml:space="preserve">
<style type="text/css">
	.st0{fill:#0741A2;}
</style>
<title>OSWGuilds logo 1 tinta blanca</title>
<path class="st0" d="M108.8,55.9c-19.5-8.2-41.5-8.2-61,0c-4.8,2-9.4,4.5-13.6,7.5l86.4-1.2C116.9,59.8,112.9,57.7,108.8,55.9z
	 M109.7,128.4c0,4.1-0.8,8.1-2.5,11.8c-0.9,2.3-2.1,4.4-3.6,6.3l51-0.7c1.2-5.5,1.9-11.1,2-16.7L109.7,128.4z M109.7,128.4
	c0,4.1-0.8,8.1-2.5,11.8c-0.9,2.3-2.1,4.4-3.6,6.3l51-0.7c1.2-5.5,1.9-11.1,2-16.7L109.7,128.4z M154,108.1l-52.3-0.7
	c2.2,2.5,4,5.4,5.3,8.6c1.3,3,2.1,6.2,2.4,9.5l47.1-0.5C156.4,119.3,155.5,113.6,154,108.1z M109.7,128.4c0,4.1-0.8,8.1-2.5,11.8
	c-0.9,2.3-2.1,4.4-3.6,6.3l51-0.7c1.2-5.5,1.9-11.1,2-16.7L109.7,128.4z M154,108.1l-52.3-0.7c2.2,2.5,4,5.4,5.3,8.6
	c1.3,3,2.1,6.2,2.4,9.5l47.1-0.5C156.4,119.3,155.5,113.6,154,108.1z M109.7,128.4c0,4.1-0.8,8.1-2.5,11.8c-0.9,2.3-2.1,4.4-3.6,6.3
	l51-0.7c1.2-5.5,1.9-11.1,2-16.7L109.7,128.4z M154,108.1l-52.3-0.7c2.2,2.5,4,5.4,5.3,8.6c1.3,3,2.1,6.2,2.4,9.5l47.1-0.5
	C156.4,119.3,155.5,113.6,154,108.1z M109.7,128.4c0,4.1-0.8,8.1-2.5,11.8c-0.9,2.3-2.1,4.4-3.6,6.3l51-0.7c1.2-5.5,1.9-11.1,2-16.7
	L109.7,128.4z M154,108.1l-52.3-0.7c2.2,2.5,4,5.4,5.3,8.6c1.3,3,2.1,6.2,2.4,9.5l47.1-0.5C156.4,119.3,155.5,113.6,154,108.1z
	 M109.7,128.4c0,4.1-0.8,8.1-2.5,11.8c-0.9,2.3-2.1,4.4-3.6,6.3l51-0.7c1.2-5.5,1.9-11.1,2-16.7L109.7,128.4z M154,108.1l-52.3-0.7
	c2.2,2.5,4,5.4,5.3,8.6c1.3,3,2.1,6.2,2.4,9.5l47.1-0.5C156.4,119.3,155.5,113.6,154,108.1z M109.7,128.4c0,4.1-0.8,8.1-2.5,11.8
	c-0.9,2.3-2.1,4.4-3.6,6.3l51-0.7c1.2-5.5,1.9-11.1,2-16.7L109.7,128.4z M154,108.1l-52.3-0.7c2.2,2.5,4,5.4,5.3,8.6
	c1.3,3,2.1,6.2,2.4,9.5l47.1-0.5C156.4,119.3,155.5,113.6,154,108.1z M109.7,128.4c0,4.1-0.8,8.1-2.5,11.8c-0.9,2.3-2.1,4.4-3.6,6.3
	l51-0.7c1.2-5.5,1.9-11.1,2-16.7L109.7,128.4z M154,108.1l-52.3-0.7c2.2,2.5,4,5.4,5.3,8.6c1.3,3,2.1,6.2,2.4,9.5l47.1-0.5
	C156.4,119.3,155.5,113.6,154,108.1z M109.7,128.4c0,4.1-0.8,8.1-2.5,11.8c-0.9,2.3-2.1,4.4-3.6,6.3l51-0.7c1.2-5.5,1.9-11.1,2-16.7
	L109.7,128.4z M154,108.1l-52.3-0.7c2.2,2.5,4,5.4,5.3,8.6c1.3,3,2.1,6.2,2.4,9.5l47.1-0.5C156.4,119.3,155.5,113.6,154,108.1z
	 M109.7,128.4c0,4.1-0.8,8.1-2.5,11.8c-0.9,2.3-2.1,4.4-3.6,6.3l51-0.7c1.2-5.5,1.9-11.1,2-16.7L109.7,128.4z M154,108.1l-52.3-0.7
	c2.2,2.5,4,5.4,5.3,8.6c1.3,3,2.1,6.2,2.4,9.5l47.1-0.5C156.4,119.3,155.5,113.6,154,108.1z M109.7,128.4c0,4.1-0.8,8.1-2.5,11.8
	c-0.9,2.3-2.1,4.4-3.6,6.3l51-0.7c1.2-5.5,1.9-11.1,2-16.7L109.7,128.4z M154,108.1l-52.3-0.7c2.2,2.5,4,5.4,5.3,8.6
	c1.3,3,2.1,6.2,2.4,9.5l47.1-0.5C156.4,119.3,155.5,113.6,154,108.1z M109.7,128.4c0,4.1-0.8,8.1-2.5,11.8c-0.9,2.3-2.1,4.4-3.6,6.3
	l51-0.7c1.2-5.5,1.9-11.1,2-16.7L109.7,128.4z M154,108.1l-52.3-0.7c2.2,2.5,4,5.4,5.3,8.6c1.3,3,2.1,6.2,2.4,9.5l47.1-0.5
	C156.4,119.3,155.5,113.6,154,108.1z M101.3,149.4l-0.8,0.8c-2.9,2.8-6.2,5.1-9.9,6.7c-7.8,3.3-16.7,3.3-24.5,0
	c-3.7-1.6-7-3.9-9.9-6.7c-0.5-0.5-0.9-1-1.3-1.5L2.6,148c0.9,3.6,2.1,7,3.6,10.4c1.5,3.6,3.2,7,5.2,10.3l134.8-1.7
	c1.6-2.8,3.1-5.6,4.3-8.6c1.2-2.7,2.1-5.5,2.9-8.3L101.3,149.4z M49.4,140.3c-1.7-3.8-2.5-8-2.5-12.2v-0.4L0,127v1.1
	c0,6.7,0.8,13.3,2.5,19.8l51-0.7C51.9,145.1,50.5,142.7,49.4,140.3L49.4,140.3z M150.5,97.6c-1.6-3.7-3.5-7.3-5.6-10.7l-132-1.7
	c-2.5,4-4.8,8.2-6.7,12.6c-1.2,2.7-2.1,5.5-2.9,8.3l53.8-0.7c2.7-2.5,5.8-4.5,9.1-6c7.8-3.3,16.7-3.3,24.5,0
	c3.1,1.3,5.9,3.1,8.4,5.3l53.8-0.7C152.1,101.7,151.3,99.6,150.5,97.6z M0,126.9l47.1-0.5c0.1-3.6,0.9-7.1,2.4-10.4
	c1.5-3.3,3.5-6.4,6-9.1l-52.3-0.7C1.1,112.9,0,119.9,0,126.9z M154,108.1l-52.3-0.7c2.2,2.5,4,5.4,5.3,8.6c1.3,3,2.1,6.2,2.4,9.5
	l47.1-0.5C156.4,119.3,155.5,113.6,154,108.1z M109.7,128.4c0,4.1-0.8,8.1-2.5,11.8c-0.9,2.3-2.1,4.4-3.6,6.3l51-0.7
	c1.2-5.5,1.9-11.1,2-16.7L109.7,128.4z M154,108.1l-52.3-0.7c2.2,2.5,4,5.4,5.3,8.6c1.3,3,2.1,6.2,2.4,9.5l47.1-0.5
	C156.4,119.3,155.5,113.6,154,108.1z M109.7,128.4c0,4.1-0.8,8.1-2.5,11.8c-0.9,2.3-2.1,4.4-3.6,6.3l51-0.7c1.2-5.5,1.9-11.1,2-16.7
	L109.7,128.4z M154,108.1l-52.3-0.7c2.2,2.5,4,5.4,5.3,8.6c1.3,3,2.1,6.2,2.4,9.5l47.1-0.5C156.4,119.3,155.5,113.6,154,108.1z
	 M109.7,128.4c0,4.1-0.8,8.1-2.5,11.8c-0.9,2.3-2.1,4.4-3.6,6.3l51-0.7c1.2-5.5,1.9-11.1,2-16.7L109.7,128.4z M154,108.1l-52.3-0.7
	c2.2,2.5,4,5.4,5.3,8.6c1.3,3,2.1,6.2,2.4,9.5l47.1-0.5C156.4,119.3,155.5,113.6,154,108.1z M109.7,128.4c0,4.1-0.8,8.1-2.5,11.8
	c-0.9,2.3-2.1,4.4-3.6,6.3l51-0.7c1.2-5.5,1.9-11.1,2-16.7L109.7,128.4z M154,108.1l-52.3-0.7c2.2,2.5,4,5.4,5.3,8.6
	c1.3,3,2.1,6.2,2.4,9.5l47.1-0.5C156.4,119.3,155.5,113.6,154,108.1z M109.7,128.4c0,4.1-0.8,8.1-2.5,11.8c-0.9,2.3-2.1,4.4-3.6,6.3
	l51-0.7c1.2-5.5,1.9-11.1,2-16.7L109.7,128.4z M154,108.1l-52.3-0.7c2.2,2.5,4,5.4,5.3,8.6c1.3,3,2.1,6.2,2.4,9.5l47.1-0.5
	C156.4,119.3,155.5,113.6,154,108.1z M109.7,128.4c0,4.1-0.8,8.1-2.5,11.8c-0.9,2.3-2.1,4.4-3.6,6.3l51-0.7c1.2-5.5,1.9-11.1,2-16.7
	L109.7,128.4z M154,108.1l-52.3-0.7c2.2,2.5,4,5.4,5.3,8.6c1.3,3,2.1,6.2,2.4,9.5l47.1-0.5C156.4,119.3,155.5,113.6,154,108.1z
	 M109.7,128.4c0,4.1-0.8,8.1-2.5,11.8c-0.9,2.3-2.1,4.4-3.6,6.3l51-0.7c1.2-5.5,1.9-11.1,2-16.7L109.7,128.4z M154,108.1l-52.3-0.7
	c2.2,2.5,4,5.4,5.3,8.6c1.3,3,2.1,6.2,2.4,9.5l47.1-0.5C156.4,119.3,155.5,113.6,154,108.1z M109.7,128.4c0,4.1-0.8,8.1-2.5,11.8
	c-0.9,2.3-2.1,4.4-3.6,6.3l51-0.7c1.2-5.5,1.9-11.1,2-16.7L109.7,128.4z M154,108.1l-52.3-0.7c2.2,2.5,4,5.4,5.3,8.6
	c1.3,3,2.1,6.2,2.4,9.5l47.1-0.5C156.4,119.3,155.5,113.6,154,108.1z M109.7,128.4c0,4.1-0.8,8.1-2.5,11.8c-0.9,2.3-2.1,4.4-3.6,6.3
	l51-0.7c1.2-5.5,1.9-11.1,2-16.7L109.7,128.4z M154,108.1l-52.3-0.7c2.2,2.5,4,5.4,5.3,8.6c1.3,3,2.1,6.2,2.4,9.5l47.1-0.5
	C156.4,119.3,155.5,113.6,154,108.1z M109.7,128.4c0,4.1-0.8,8.1-2.5,11.8c-0.9,2.3-2.1,4.4-3.6,6.3l51-0.7c1.2-5.5,1.9-11.1,2-16.7
	L109.7,128.4z M154,108.1l-52.3-0.7c2.2,2.5,4,5.4,5.3,8.6c1.3,3,2.1,6.2,2.4,9.5l47.1-0.5C156.4,119.3,155.5,113.6,154,108.1z
	 M109.7,128.4c0,4.1-0.8,8.1-2.5,11.8c-0.9,2.3-2.1,4.4-3.6,6.3l51-0.7c1.2-5.5,1.9-11.1,2-16.7L109.7,128.4z M31.1,190.5
	c5.2,3.9,10.8,7.2,16.7,9.8c19.5,8.2,41.5,8.2,61,0c5.3-2.3,10.4-5.1,15.1-8.4L31.1,190.5z M11.7,169.2c3.2,5.1,7,9.9,11.2,14.2
	c2.2,2.2,4.5,4.3,7,6.2l0,0l98.4-1.3c1.9-1.5,3.6-3.2,5.3-4.8c3.8-3.8,7.2-7.9,10.2-12.4L11.7,169.2z M154,108.1l-52.3-0.7
	c2.2,2.5,4,5.4,5.3,8.6c1.3,3,2.1,6.2,2.4,9.5l47.1-0.5C156.4,119.3,155.5,113.6,154,108.1z M109.7,128.4c0,4.1-0.8,8.1-2.5,11.8
	c-0.9,2.3-2.1,4.4-3.6,6.3l51-0.7c1.2-5.5,1.9-11.1,2-16.7L109.7,128.4z M154,108.1l-52.3-0.7c2.2,2.5,4,5.4,5.3,8.6
	c1.3,3,2.1,6.2,2.4,9.5l47.1-0.5C156.4,119.3,155.5,113.6,154,108.1z M109.7,128.4c0,4.1-0.8,8.1-2.5,11.8c-0.9,2.3-2.1,4.4-3.6,6.3
	l51-0.7c1.2-5.5,1.9-11.1,2-16.7L109.7,128.4z M133.6,72.6c-2.5-2.6-5.3-4.9-8.2-7.1l-92.8-1.3c-3.5,2.5-6.8,5.2-9.8,8.3
	c-3.7,3.6-7,7.7-9.8,12l129.1-1.7C139.6,79.1,136.8,75.7,133.6,72.6L133.6,72.6z M109.7,128.4c0,4.1-0.8,8.1-2.5,11.8
	c-0.9,2.3-2.1,4.4-3.6,6.3l51-0.7c1.2-5.5,1.9-11.1,2-16.7L109.7,128.4z"/>
<path class="st0" d="M160.5,192.3v8.7c3.9,1.1,7.9,2,11.8,2.7c4.3,0.8,8.6,1.5,12.8,1.9c5.2,0.5,10.6,0.8,15.8,0.8
	c8.3,0.2,16.6-1.1,24.5-3.6c5.9-2,11.4-5.2,16-9.4L160.5,192.3z M252.2,142.2c-1.6-4.2-3.6-8.1-6.2-11.8l-68.3-0.9
	c1.2,1.2,2.5,2.3,3.7,3.3c3.6,2.9,7.1,5.8,10.3,8.2c2,1.6,3.7,2.9,5.3,4.4l55.9-0.8C252.7,143.8,252.4,143,252.2,142.2L252.2,142.2z
	 M160.3,87.1c-0.2,1.9-0.3,3.7-0.3,5.6c0,3.7,0.4,7.4,1.2,11l56.4-0.8c-1.7-1.7-2.7-3.1-2.7-4.1c0-1.2,0.4-2.4,1.3-3.2
	c0.9-0.8,2-1.3,3.2-1.6c1.2-0.3,2.5-0.5,3.7-0.5c1.3-0.1,2.5-0.1,3.3-0.1c1.7,0,3.2,0.1,4.7,0.1c1.3,0,2.7,0.2,4,0.5
	c1.3,0.1,2.7,0.3,4,0.5v-6.3L160.3,87.1z M229.8,51.4c-2.9-0.3-6-0.5-9.6-0.9c-3.6-0.4-7.1-0.5-10.7-0.5c-6.6,0-13.1,0.9-19.4,2.8
	c-5.8,1.7-11.1,4.4-15.8,8.2c-0.3,0.2-0.6,0.5-0.9,0.8l65.9-0.9V53C236.2,52.3,233,51.8,229.8,51.4z M168.8,66.1
	c-2,2.4-3.6,5.1-4.9,7.9c-1.3,2.7-2.3,5.6-2.8,8.6l78.4-1.1V67.1L168.8,66.1z M235,117.7c-3.5-3.2-6.7-5.9-9.6-8.3
	c-0.1-0.1-0.4-0.3-0.5-0.5l-62.2-0.8c0.1,0.4,0.3,0.8,0.5,1.2c2,4.7,4.7,9.1,7.9,13.1l1.7,2.1l67.9-0.9
	C238.9,121.5,237,119.6,235,117.7z M254.6,151.5l-52.6-0.7c0.4,0.9,0.7,1.8,0.7,2.8c0,5.1-3.5,7.6-10.3,7.6c-3.8,0-7.7-0.3-11.5-0.7
	c-3.4-0.4-6.8-0.9-10.2-1.7c-3.5-0.5-7-1.3-10.3-2.5v10.6l94.3-1.3c0.1-2.1,0.4-4.1,0.4-6.3C255.1,156.6,254.8,154.1,254.6,151.5z
	 M160.5,171.2v16.6l86.8-1.2c1.9-2.8,3.5-5.9,4.7-9.1c0.5-1.7,1.1-3.3,1.6-5.2l0,0L160.5,171.2z"/>
<path class="st0" d="M361.6,53.4h-32.7l-2,6l36.5-0.5L361.6,53.4z M306.3,89.1l-50.8-0.7l4.5,14l50.4-0.7L306.3,89.1z M366.8,68.7
	L324,68.2l-4,12.2l50.4-0.7L366.8,68.7z M373.7,90L317,89.2l-4,12.4l64.3-0.9L373.7,90z M262.5,109.5l4.5,13.8l157.3-2.1l3.1-9.4
	L262.5,109.5z M350.7,173.9l3.7,11.4l48.8-0.7l3.2-10L350.7,173.9z M276.4,151.8l4.4,13.4l62.2-0.8l2.3-7l2.3,7l62.7-0.9l3.2-9.8
	L276.4,151.8z M357.7,195l2.5,7.6h37.2l2.3-7.1L357.7,195z M290.3,194.1l2.8,8.6h37.2l2.7-7.9L290.3,194.1z M283.3,172.9l4.4,13.2
	l48.3-0.7l3.9-11.7L283.3,172.9z M269.4,130.7l4.4,13.6l143.4-2l3.2-9.6L269.4,130.7z M396.1,53.4l-1.7,5.2l50.8-0.7l1.5-4.4
	L396.1,53.4L396.1,53.4z M387.4,79.6l50.8-0.7l2.9-9.1l-50.3-0.7L387.4,79.6z M383.9,90.1l-3.5,10.6l50.8-0.7l3.1-9.2L383.9,90.1z
	 M299.4,67.9l-50.8-0.7l4.7,14.2l50.3-0.7L299.4,67.9z M294.4,53.4h-50.5l2.4,7.1l50.3-0.7L294.4,53.4z"/>
<path class="st0" d="M439.6,150.1c0,31.6,14.9,52.4,40.3,52.4c16.1,0,26.5-8.5,35.2-20l-2.5,18.9c-3.9,29.6-18.3,35.2-33.6,35.2
	c-12.1,0-24-4.8-33.8-10.7l-12.7,23.4c14.1,9.6,30.7,14.8,47.7,14.9c36.9,0,59.2-19.2,66.3-66L565.7,62C551,54.1,535,49,517.5,49
	C460.5,49.1,439.6,103.3,439.6,150.1z M518.5,154.3c-8.2,12.1-17.2,22-27.9,22c-10.4,0-16.1-7.3-16.1-25.7
	c0-35.2,11.8-75.6,40.9-75.6c4.8-0.1,9.6,0.8,14.1,2.5L518.5,154.3z"/>
<path class="st0" d="M653.8,53.3l-14.1,97.6c-7.3,12.4-17.8,27.1-29.3,27.1c-7,0-10.7-4.8-8.7-17.5l14.9-107.1h-34.1l-15.2,109.7
	c-3.9,26.8,8.5,43.7,30.5,43.7c18.9,0,30.5-12.1,41.2-28.2l-1.7,24h29.6l20.9-149.2h-34V53.3z"/>
<polygon class="st0" points="687,202.5 721.1,202.5 742,53.3 707.9,53.3 "/>
<path class="st0" d="M989.3,75.1c11,0,20.6,4.2,29.9,11.8l15.2-19.2c-11.3-11.3-26.8-18.6-46.2-18.6c-32.4,0-53.6,21.7-53.6,46.8
	c0,20,10.2,30.7,31.9,39.5c18.3,7.3,24.2,12.4,24.2,24c0,10.2-6.8,21.4-24,21.4c-13.5,0-24-6.2-33-14.9l-18.6,18.6
	c11.3,12.4,27.9,22.3,51.6,22.3c32.4,0,58.9-19.5,58.9-51.3c0-21.7-11.8-33.3-32.7-41.7c-17.8-7.3-24.5-11.8-24.5-21.4
	C968.4,81.5,976.9,75.1,989.3,75.1z"/>
<path class="st0" d="M744.8,169.2c-3.4,23.4,7,37.2,27.6,37.2c7.8,0,15.5-1.7,22.6-5.1l-3.9-24c-2.3,0.7-4.6,1-7,1.1
	c-4.5,0-6.2-2.5-5.4-9.3L801.6,3.9l-33.8,1L744.8,169.2z"/>
<path class="st0" d="M901,1l-8.7,63.9c-5.9-9.3-15.2-15.8-29.3-15.8c-44.5,0-64.3,57.8-64.3,103.2c0,33.8,14.4,54.4,40,54.4
	c16.9,0,29.3-9.6,38.9-25.1l-0.8,20.9H907L935.5,0L901,1z M879.9,152.3c-9.3,16.6-18.6,28.2-29.9,28.2c-10.2,0-16.4-7.6-16.4-27.6
	c0-29.3,9.6-77.5,35.2-77.5c9.6,0,14.9,5.1,19.7,14.1L879.9,152.3z"/>
<polygon class="st0" points="714.5,6.7 710.5,38 744.2,38 748.2,5.6 "/>
</svg>
